<?xml version="1.0" standalone="no"?>
<!DOCTYPE svg PUBLIC "-//W3C//DTD SVG 20010904//EN"
 "http://www.w3.org/TR/2001/REC-SVG-20010904/DTD/svg10.dtd">
<svg version="1.0" xmlns="http://www.w3.org/2000/svg"
 width="698.000000pt" height="698.000000pt" viewBox="0 0 698.000000 698.000000"
 preserveAspectRatio="xMidYMid meet">
<metadata>
Created by potrace 1.11, written by Peter Selinger 2001-2013
</metadata>
<g transform="translate(0.000000,698.000000) scale(0.100000,-0.100000)"
fill="#000000" stroke="none">
<path d="M0 3490 l0 -3490 3490 0 3490 0 0 3490 0 3490 -3490 0 -3490 0 0
-3490z m3577 2365 c96 -43 172 -150 196 -276 l11 -58 69 70 c63 64 126 106
187 124 21 6 19 0 -21 -41 -51 -54 -99 -117 -99 -129 0 -5 28 19 63 51 93 90
146 123 177 112 13 -5 26 -11 28 -13 3 -2 -19 -30 -47 -61 -61 -67 -60 -84 2
-27 69 63 82 68 106 37 59 -75 38 -230 -61 -449 -58 -128 -68 -173 -68 -307 0
-65 -2 -118 -5 -118 -2 0 -28 9 -57 19 -92 33 -328 33 -450 0 -53 -14 -68 -46
-41 -90 24 -43 67 -53 193 -45 84 6 104 11 175 46 63 31 91 40 133 40 58 0 56
3 87 -100 9 -30 25 -70 36 -89 11 -18 19 -34 17 -35 -2 -1 -82 3 -178 8 -216
12 -379 -1 -449 -36 -39 -20 -51 -33 -77 -88 -35 -72 -69 -100 -124 -100 -63
0 -101 28 -122 89 -21 65 -49 97 -103 122 -33 15 -66 19 -193 19 l-154 0 27
31 c14 18 37 54 51 80 13 27 30 49 37 49 6 -1 39 -7 72 -15 74 -18 201 -19
235 -2 36 18 39 66 6 103 l-24 29 -135 0 -135 0 7 35 c7 40 8 361 1 555 -4
111 -2 137 14 180 28 74 83 152 137 195 45 36 50 37 93 29 94 -17 196 -80 315
-193 l54 -51 -24 44 c-56 103 -188 210 -294 236 l-30 7 40 14 c23 8 53 12 70
8 98 -20 237 -139 303 -259 29 -53 32 -56 26 -25 -17 95 -102 217 -199 288
l-30 23 50 -7 c28 -3 73 -16 102 -29z m843 -537 c-63 -168 -72 -276 -35 -433
12 -55 12 -59 -16 -121 -16 -35 -34 -64 -41 -64 -6 0 -9 -3 -5 -6 3 -4 -3 -24
-14 -45 -32 -64 -14 -44 43 46 29 47 55 85 58 85 3 0 13 -23 23 -51 16 -43 17
-58 7 -105 -14 -68 -7 -81 10 -19 l13 45 38 -87 c22 -48 39 -88 39 -88 0 -1
-37 4 -82 11 -46 7 -113 15 -149 19 l-67 6 -10 57 c-6 31 -14 78 -18 104 l-6
46 38 -9 c63 -14 73 -9 19 10 l-50 18 -3 54 c-9 146 71 381 195 573 24 37 46
66 48 64 3 -3 -13 -52 -35 -110z m121 -54 c-11 -54 -35 -143 -53 -197 -30 -92
-33 -97 -42 -71 -13 41 7 157 51 285 32 94 39 107 51 95 12 -12 11 -28 -7
-112z m-1657 -284 c-3 -47 -7 -103 -10 -126 l-5 -41 -67 -6 c-37 -3 -120 -21
-184 -40 -65 -18 -118 -32 -118 -29 0 2 28 34 61 70 56 60 159 204 159 222 0
4 21 22 48 39 26 16 61 44 77 61 l30 31 7 -48 c3 -26 4 -86 2 -133z m1701
-162 c-1 -112 -3 -214 -4 -228 -1 -23 -3 -23 -12 -7 -6 10 -24 56 -39 103
l-29 85 41 124 c23 69 42 125 43 125 1 0 1 -91 0 -202z m-73 82 c-27 -81 -29
-83 -35 -51 -6 27 -1 44 24 88 17 30 33 52 35 50 2 -2 -9 -41 -24 -87z m-2346
-177 c-3 -7 -10 -13 -15 -13 -9 0 -6 88 7 170 6 38 7 30 10 -49 1 -52 1 -100
-2 -108z m179 165 c-10 -45 -22 -66 -44 -78 -18 -9 -19 -7 -11 23 4 17 11 44
14 60 5 19 13 27 27 27 18 0 20 -4 14 -32z m428 -162 c32 -7 61 -17 65 -20 3
-4 -12 -44 -35 -90 l-41 -83 -149 -7 c-81 -4 -184 -12 -227 -17 -44 -4 -81 -7
-82 -6 -2 1 5 33 14 70 17 65 19 68 76 103 69 44 72 41 82 -59 9 -88 24 -68
24 30 l0 72 38 6 c20 4 42 8 47 10 25 9 136 3 188 -9z m-490 -163 c-3 -32 -8
-61 -12 -64 -3 -4 -26 -10 -50 -14 -40 -7 -43 -6 -36 11 4 11 14 37 21 60 13
36 38 57 76 63 4 1 4 -25 1 -56z m-125 -94 c-10 -6 -14 4 -16 43 -2 34 1 54
10 59 10 6 14 -4 16 -43 2 -34 -1 -54 -10 -59z m-43 54 c4 -21 9 -45 11 -55 3
-9 1 -19 -5 -22 -5 -3 -13 -25 -17 -49 -5 -34 -8 -38 -15 -22 -9 25 -12 169
-2 178 14 15 22 6 28 -30z m998 -72 c77 -25 100 -77 99 -227 -1 -97 -26 -272
-45 -314 -30 -64 -179 -95 -457 -95 -187 0 -212 2 -279 23 -101 32 -131 63
-166 172 -47 149 -70 365 -42 389 20 16 143 39 288 55 153 17 546 15 602 -3z
m1272 -16 c61 -8 111 -15 112 -15 1 0 9 -7 17 -15 14 -14 13 -22 -8 -78 -13
-35 -36 -87 -50 -116 -36 -71 -18 -57 41 32 l48 72 3 -94 c3 -113 -24 -236
-66 -296 -50 -72 -180 -105 -412 -105 -220 0 -347 29 -387 89 -65 97 -122 431
-85 498 14 26 34 33 126 44 103 12 533 1 661 -16z m-917 -264 c15 -15 51 -86
81 -157 62 -144 99 -194 168 -220 40 -16 86 -18 367 -18 292 -1 324 1 354 17
19 10 36 17 38 14 8 -8 -56 -327 -78 -384 -30 -80 -75 -122 -213 -197 -66 -36
-200 -109 -297 -163 l-178 -97 0 -176 0 -176 -75 -43 c-100 -58 -249 -121
-283 -121 -29 0 -117 38 -162 70 -27 19 -27 22 -33 147 -4 71 -10 162 -13 203
l-7 75 -277 137 c-289 143 -349 183 -413 275 -24 35 -182 481 -173 490 2 2 23
-9 47 -26 60 -40 159 -72 244 -78 80 -6 384 13 460 29 28 6 74 22 103 35 65
31 103 84 133 188 31 105 49 143 86 175 44 39 86 40 121 1z m202 -1935 c0 -29
3 -101 7 -161 5 -94 9 -108 25 -113 53 -14 164 -77 209 -119 61 -57 89 -108
96 -177 16 -156 -85 -309 -239 -364 l-50 -17 7 -110 c4 -60 12 -115 17 -122 5
-7 7 -21 3 -33 -4 -12 -1 -27 5 -35 8 -10 8 -19 1 -34 -6 -11 -11 -28 -11 -39
0 -12 -9 -22 -22 -26 -50 -13 -56 -9 -62 46 -10 91 -11 96 -19 104 -4 4 0 15
9 25 14 15 15 32 9 109 l-7 91 -57 -8 c-31 -4 -130 -8 -220 -8 l-163 0 6 -60
c7 -61 33 -161 47 -180 4 -6 4 -17 -1 -25 -6 -8 -10 -25 -10 -37 0 -20 -5 -23
-38 -23 -38 0 -38 1 -51 53 -8 28 -18 58 -24 65 -6 8 -5 17 3 27 9 11 10 35 2
105 -12 96 -16 110 -35 110 -27 0 -135 60 -180 100 -93 82 -124 174 -92 269
23 70 92 159 164 211 34 25 61 49 61 55 0 6 -7 89 -15 184 -16 176 -14 211 9
211 26 0 33 -27 50 -190 10 -91 20 -168 22 -172 3 -4 25 2 49 12 105 45 245
60 376 39 39 -6 72 -9 73 -7 2 1 0 77 -4 168 -3 91 -4 169 -2 174 3 5 16 -3
29 -18 18 -21 23 -39 23 -80z"/>
<path d="M3350 3461 c0 -16 61 -81 75 -81 14 0 88 80 81 88 -3 2 -19 -12 -36
-32 -18 -20 -38 -36 -45 -36 -7 0 -27 16 -44 35 -17 20 -31 31 -31 26z"/>
<path d="M3310 1885 c-1 -52 -32 -119 -64 -140 -16 -11 -39 -16 -61 -13 -20 2
-35 0 -35 -7 0 -5 5 -56 12 -112 8 -76 15 -103 26 -103 7 0 27 -13 44 -30 26
-27 31 -28 44 -15 9 8 21 15 27 15 31 -1 89 -73 117 -147 l17 -45 12 47 c26
104 78 168 120 146 11 -6 23 -20 26 -31 3 -11 10 -20 14 -20 19 0 31 76 31
193 l0 126 -34 16 c-40 19 -64 52 -81 109 l-12 40 -7 -30 c-12 -48 -53 -94
-85 -94 -34 0 -75 41 -95 95 l-15 40 -1 -40z"/>
<path d="M3780 1885 c0 -51 -25 -103 -57 -121 -28 -16 -28 -18 -25 -103 4
-116 7 -126 42 -141 40 -17 66 -54 82 -120 l14 -53 48 54 c137 151 133 318
-10 449 -31 28 -65 55 -75 61 -17 9 -19 6 -19 -26z"/>
<path d="M2983 1807 c-169 -176 -159 -325 31 -458 l71 -50 6 63 c4 35 9 70 13
78 9 21 -30 347 -47 393 l-14 37 -60 -63z"/>
</g>
</svg>
